<svg width="147" height="36" viewBox="0 0 147 36" fill="none" xmlns="http://www.w3.org/2000/svg">
<path d="M18 11.25C16.665 11.25 15.3599 11.6459 14.2499 12.3876C13.1399 13.1293 12.2747 14.1835 11.7638 15.4169C11.2529 16.6503 11.1192 18.0075 11.3797 19.3169C11.6402 20.6262 12.283 21.829 13.227 22.773C14.171 23.717 15.3738 24.3599 16.6831 24.6203C17.9925 24.8808 19.3497 24.7471 20.5831 24.2362C21.8165 23.7253 22.8707 22.8601 23.6124 21.7501C24.3541 20.6401 24.75 19.335 24.75 18C24.7481 16.2104 24.0364 14.4946 22.7709 13.2291C21.5054 11.9636 19.7896 11.2519 18 11.25ZM18 22.5C17.11 22.5 16.24 22.2361 15.4999 21.7416C14.7599 21.2471 14.1831 20.5443 13.8425 19.7221C13.5019 18.8998 13.4128 17.995 13.5865 17.1221C13.7601 16.2492 14.1887 15.4474 14.818 14.818C15.4474 14.1887 16.2492 13.7601 17.1221 13.5865C17.995 13.4128 18.8998 13.5019 19.7221 13.8425C20.5443 14.1831 21.2471 14.7599 21.7416 15.4999C22.2361 16.24 22.5 17.11 22.5 18C22.5 19.1935 22.0259 20.3381 21.182 21.182C20.3381 22.0259 19.1935 22.5 18 22.5ZM24.75 3.375H11.25C9.16211 3.37723 7.16037 4.20764 5.684 5.684C4.20764 7.16037 3.37723 9.16211 3.375 11.25V24.75C3.37723 26.8379 4.20764 28.8396 5.684 30.316C7.16037 31.7924 9.16211 32.6228 11.25 32.625H24.75C26.8379 32.6228 28.8396 31.7924 30.316 30.316C31.7924 28.8396 32.6228 26.8379 32.625 24.75V11.25C32.6228 9.16211 31.7924 7.16037 30.316 5.684C28.8396 4.20764 26.8379 3.37723 24.75 3.375ZM30.375 24.75C30.375 26.2418 29.7824 27.6726 28.7275 28.7275C27.6726 29.7824 26.2418 30.375 24.75 30.375H11.25C9.75816 30.375 8.32742 29.7824 7.27252 28.7275C6.21763 27.6726 5.625 26.2418 5.625 24.75V11.25C5.625 9.75816 6.21763 8.32742 7.27252 7.27252C8.32742 6.21763 9.75816 5.625 11.25 5.625H24.75C26.2418 5.625 27.6726 6.21763 28.7275 7.27252C29.7824 8.32742 30.375 9.75816 30.375 11.25V24.75ZM27 10.6875C27 11.0213 26.901 11.3475 26.7156 11.625C26.5302 11.9025 26.2666 12.1188 25.9583 12.2465C25.6499 12.3743 25.3106 12.4077 24.9833 12.3426C24.6559 12.2775 24.3553 12.1167 24.1193 11.8807C23.8833 11.6447 23.7225 11.3441 23.6574 11.0167C23.5923 10.6894 23.6257 10.3501 23.7535 10.0417C23.8812 9.73337 24.0975 9.46982 24.375 9.28439C24.6525 9.09897 24.9787 9 25.3125 9C25.7601 9 26.1893 9.17779 26.5057 9.49426C26.8222 9.81072 27 10.2399 27 10.6875Z" fill="url(#paint0_radial_402_356)"/>
<path d="M18 11.25C16.665 11.25 15.3599 11.6459 14.2499 12.3876C13.1399 13.1293 12.2747 14.1835 11.7638 15.4169C11.2529 16.6503 11.1192 18.0075 11.3797 19.3169C11.6402 20.6262 12.283 21.829 13.227 22.773C14.171 23.717 15.3738 24.3599 16.6831 24.6203C17.9925 24.8808 19.3497 24.7471 20.5831 24.2362C21.8165 23.7253 22.8707 22.8601 23.6124 21.7501C24.3541 20.6401 24.75 19.335 24.75 18C24.7481 16.2104 24.0364 14.4946 22.7709 13.2291C21.5054 11.9636 19.7896 11.2519 18 11.25ZM18 22.5C17.11 22.5 16.24 22.2361 15.4999 21.7416C14.7599 21.2471 14.1831 20.5443 13.8425 19.7221C13.5019 18.8998 13.4128 17.995 13.5865 17.1221C13.7601 16.2492 14.1887 15.4474 14.818 14.818C15.4474 14.1887 16.2492 13.7601 17.1221 13.5865C17.995 13.4128 18.8998 13.5019 19.7221 13.8425C20.5443 14.1831 21.2471 14.7599 21.7416 15.4999C22.2361 16.24 22.5 17.11 22.5 18C22.5 19.1935 22.0259 20.3381 21.182 21.182C20.3381 22.0259 19.1935 22.5 18 22.5ZM24.75 3.375H11.25C9.16211 3.37723 7.16037 4.20764 5.684 5.684C4.20764 7.16037 3.37723 9.16211 3.375 11.25V24.75C3.37723 26.8379 4.20764 28.8396 5.684 30.316C7.16037 31.7924 9.16211 32.6228 11.25 32.625H24.75C26.8379 32.6228 28.8396 31.7924 30.316 30.316C31.7924 28.8396 32.6228 26.8379 32.625 24.75V11.25C32.6228 9.16211 31.7924 7.16037 30.316 5.684C28.8396 4.20764 26.8379 3.37723 24.75 3.375ZM30.375 24.75C30.375 26.2418 29.7824 27.6726 28.7275 28.7275C27.6726 29.7824 26.2418 30.375 24.75 30.375H11.25C9.75816 30.375 8.32742 29.7824 7.27252 28.7275C6.21763 27.6726 5.625 26.2418 5.625 24.75V11.25C5.625 9.75816 6.21763 8.32742 7.27252 7.27252C8.32742 6.21763 9.75816 5.625 11.25 5.625H24.75C26.2418 5.625 27.6726 6.21763 28.7275 7.27252C29.7824 8.32742 30.375 9.75816 30.375 11.25V24.75ZM27 10.6875C27 11.0213 26.901 11.3475 26.7156 11.625C26.5302 11.9025 26.2666 12.1188 25.9583 12.2465C25.6499 12.3743 25.3106 12.4077 24.9833 12.3426C24.6559 12.2775 24.3553 12.1167 24.1193 11.8807C23.8833 11.6447 23.7225 11.3441 23.6574 11.0167C23.5923 10.6894 23.6257 10.3501 23.7535 10.0417C23.8812 9.73337 24.0975 9.46982 24.375 9.28439C24.6525 9.09897 24.9787 9 25.3125 9C25.7601 9 26.1893 9.17779 26.5057 9.49426C26.8222 9.81072 27 10.2399 27 10.6875Z" fill="url(#paint1_radial_402_356)"/>
<path fill-rule="evenodd" clip-rule="evenodd" d="M49.2728 7.09446C47.1703 7.97352 44.8684 10.4476 44.1434 13.556C43.2191 17.4891 47.0525 19.1476 47.3697 18.6038C47.7322 17.9695 46.6809 17.752 46.4634 15.7038C46.1916 13.0757 47.415 10.1213 48.9556 8.83446C49.2456 8.58977 49.2275 8.92508 49.2275 9.54133L49.1731 22.6457C49.1731 25.4551 49.0553 26.3341 48.8469 27.2132C48.6384 28.1013 48.3031 28.6995 48.5478 28.9351C48.8378 29.1888 50.0703 28.5726 50.7772 27.5757C51.5849 26.3438 52.0047 24.898 51.9825 23.4251C52.0459 21.5582 52.0369 18.5948 52.0459 16.9091C52.0459 15.3685 52.0731 10.8282 52.0188 8.10039C52.0006 7.42977 50.1428 6.73196 49.2728 7.10352V7.09446ZM123.703 20.217C123.674 21.3926 123.403 22.5496 122.906 23.6154C122.135 25.1741 120.522 25.6545 119.833 23.416C119.471 22.2016 119.444 20.1626 119.716 18.4588C119.988 16.737 120.749 15.4229 122.008 15.5407C123.259 15.6585 123.839 17.2626 123.703 20.217ZM102.723 29.2613C102.705 31.681 102.325 33.8016 101.509 34.427C100.34 35.297 98.7903 34.6354 99.1075 32.8682C99.3884 31.3095 100.739 29.7145 102.733 27.757L102.723 29.2613ZM102.406 20.1988C102.353 21.3771 102.083 22.5354 101.609 23.6154C100.838 25.1741 99.2163 25.6545 98.5366 23.416C98.0834 21.8845 98.1922 19.9088 98.4188 18.6582C98.7178 17.0451 99.4338 15.5407 100.712 15.5407C101.962 15.5407 102.578 16.9001 102.406 20.1988ZM90.2534 20.1807C90.2305 21.3707 89.9621 22.543 89.465 23.6245C88.6675 25.1651 87.0816 25.6545 86.3838 23.416C85.8853 21.812 86.0575 19.6098 86.2659 18.4316C86.5741 16.6645 87.3534 15.4229 88.5588 15.5316C89.8094 15.6585 90.4075 17.2535 90.2534 20.1807ZM145.943 21.821C145.643 21.821 145.498 22.1382 145.39 22.6638C144.991 24.4945 144.574 24.9113 144.03 24.9113C143.432 24.9113 142.888 24.0051 142.743 22.1926C142.635 20.7607 142.653 18.1326 142.798 15.5135C142.825 14.9788 142.671 14.4532 141.23 13.9276C140.614 13.701 139.708 13.3657 139.263 14.4532C138.366 16.5224 137.733 18.6964 137.378 20.9238C137.378 20.9782 137.306 20.9873 137.288 20.8695C137.224 20.081 137.052 18.6401 137.034 15.6223C137.034 15.0332 136.907 14.5348 136.255 14.127C135.829 13.8551 134.551 13.3929 134.08 13.9457C133.69 14.3988 133.228 15.6404 132.747 17.0995L132.077 19.0932L132.086 14.6707C132.086 14.2176 131.778 14.0635 131.678 14.0363C131.146 13.8723 130.6 13.76 130.047 13.701C129.612 13.701 129.503 13.9457 129.503 14.3082C129.503 14.3535 129.431 18.5223 129.431 21.4404V21.8573C129.186 23.1985 128.398 25.0201 127.537 25.0201C126.676 25.0201 126.268 24.2588 126.268 20.7788C126.268 18.7488 126.331 17.8698 126.358 16.4016C126.377 15.5498 126.413 14.9063 126.413 14.7613C126.404 14.3082 125.624 14.0816 125.262 13.991C124.899 13.9095 124.573 13.8732 124.328 13.8913C123.966 13.9095 123.721 14.136 123.721 14.4532V14.9516C123.33 14.333 122.748 13.8589 122.063 13.6013C120.758 13.2116 119.398 13.556 118.374 14.9879C117.49 16.2523 116.97 17.7349 116.87 19.2745C116.725 20.6338 116.779 22.0023 117.024 23.1713C116.725 24.4763 116.154 25.0201 115.538 25.0201C114.641 25.0201 113.997 23.552 114.07 21.0326C114.124 19.3651 114.45 18.196 114.813 16.5104C114.967 15.7854 114.849 15.4229 114.532 15.0604C114.242 14.7251 113.626 14.5529 112.728 14.7613C112.094 14.9063 111.188 15.0695 110.372 15.1873C110.372 15.1873 110.418 14.997 110.463 14.6435C110.671 12.8038 108.668 12.9488 108.025 13.5379C107.644 13.8913 107.391 14.2991 107.282 15.0513C107.128 16.2295 108.098 16.7823 108.098 16.7823C107.475 19.1346 106.431 21.3545 105.016 23.3345V22.7001C105.007 19.6551 105.043 17.2626 105.062 16.4016C105.08 15.5498 105.116 14.9245 105.116 14.7704C105.116 14.4441 104.917 14.3173 104.518 14.1632C104.155 14.0182 103.738 13.9276 103.303 13.8913C102.76 13.846 102.424 14.136 102.433 14.4804V14.9516C102.041 14.331 101.455 13.8566 100.766 13.6013C99.4609 13.2116 98.1016 13.556 97.0775 14.9879C96.2252 16.265 95.7079 17.736 95.5731 19.2654C95.4372 20.6882 95.4553 21.8935 95.6547 22.9266C95.4463 23.9507 94.8481 25.011 94.1775 25.011C93.3166 25.011 92.8181 24.2588 92.8181 20.7788C92.8181 18.7488 92.8816 17.8698 92.9088 16.4016C92.9269 15.5498 92.9631 14.9063 92.9631 14.7613C92.9631 14.3082 92.1747 14.0816 91.8122 13.991C91.4316 13.9004 91.0963 13.8732 90.8516 13.9004C90.5163 13.9185 90.2806 14.2176 90.2806 14.4441V14.9516C89.8877 14.331 89.3019 13.8566 88.6131 13.6013C87.3081 13.2116 85.9578 13.5651 84.9247 14.9879C84.245 15.9213 83.7013 16.9545 83.4203 19.2473C83.3442 19.8605 83.3079 20.4781 83.3116 21.096C83.0397 22.7363 81.8525 24.6304 80.8828 24.6304C80.3119 24.6304 79.7681 23.5338 79.7681 21.1866C79.7681 18.0601 79.9675 13.6104 79.9947 13.1845L81.4628 13.1573C82.0791 13.1573 82.6319 13.1663 83.4475 13.121C83.8553 13.1029 84.245 11.6348 83.8281 11.4535C83.6378 11.372 82.2875 11.2995 81.7438 11.2904C81.2906 11.2813 80.04 11.1907 80.04 11.1907C80.04 11.1907 80.1578 8.23633 80.185 7.92821C80.2031 7.65633 79.8678 7.52946 79.6684 7.44789C79.2211 7.26785 78.7565 7.13424 78.2819 7.04914C77.5931 6.91321 77.285 7.04914 77.2216 7.62914C77.1309 8.50821 77.0856 11.091 77.0856 11.091C76.5781 11.091 74.8472 10.9913 74.3488 10.9913C73.8775 10.9913 73.37 13.0032 74.0225 13.0304L76.9225 13.112L76.8953 19.0298V19.4557C76.415 21.9298 74.7475 23.262 74.7475 23.262C75.11 21.6307 74.3669 20.4073 73.0528 19.3651C72.5634 18.9845 71.6028 18.2595 70.5244 17.462C70.5244 17.462 71.1497 16.8457 71.7025 15.6132C72.0922 14.7432 72.1103 13.7463 71.1497 13.5288C69.5638 13.1573 68.2497 14.3173 67.86 15.5679C67.7079 15.9727 67.6698 16.4115 67.7497 16.8365C67.8296 17.2615 68.0245 17.6565 68.3131 17.9785L68.4491 18.1507C68.0866 18.8395 67.5972 19.7638 67.1803 20.4888C66.0294 22.4826 65.1503 24.0685 64.4888 24.0685C63.9631 24.0685 63.9722 22.4645 63.9722 20.9601C63.9722 19.6641 64.0628 17.7157 64.1444 15.7038C64.1716 15.0332 63.8363 14.6526 63.2744 14.3082C62.8276 13.9991 62.3215 13.7862 61.7881 13.6829C61.1538 13.6829 59.3413 13.7735 57.6194 18.7307C57.4109 19.356 56.985 20.4888 56.985 20.4888L57.0213 14.5348C57.0213 14.3898 56.9488 14.2629 56.7766 14.1723C56.2357 13.8848 55.639 13.7178 55.0275 13.6829C54.7013 13.6829 54.5381 13.837 54.5381 14.136L54.4747 23.4704C54.4747 24.1773 54.4928 25.002 54.5653 25.3645C54.6378 25.727 54.7466 26.017 54.8916 26.1891C55.0275 26.3704 55.1906 26.4973 55.4534 26.5516C55.7072 26.606 57.0666 26.7782 57.1391 26.2616C57.2297 25.6363 57.2297 24.9657 57.9456 22.4554C59.0513 18.5495 60.5013 16.6373 61.19 15.9666C61.3078 15.8398 61.4438 15.8398 61.4347 16.0301L61.2353 20.8513C61.0541 25.7179 61.9422 26.6151 63.2019 26.6151C64.1716 26.6151 65.54 25.6545 67.0081 23.2257L69.455 19.1476L70.8869 20.4707C72.0469 21.5582 72.4275 22.6095 72.1738 23.5973C71.9834 24.3495 71.2494 25.1379 69.9625 24.3766C69.5819 24.1501 69.4188 23.9779 69.0472 23.7332C68.8388 23.5973 68.5306 23.552 68.3403 23.697C67.86 24.0595 67.5791 24.5307 67.425 25.1016C67.2709 25.6545 67.8328 25.9535 68.4128 26.2073C68.9113 26.4338 69.9897 26.6332 70.6784 26.6604C73.3428 26.751 75.4816 25.3735 76.9678 21.821C77.2397 24.8841 78.3725 26.6241 80.3391 26.6241C81.6531 26.6241 82.9763 24.9204 83.5563 23.2529C83.7194 23.9326 83.9641 24.5216 84.2813 25.0291C85.8038 27.4307 88.7491 26.9051 90.2263 24.866C90.6794 24.2407 90.7519 24.0141 90.7519 24.0141C90.7961 24.7003 91.0928 25.3457 91.5848 25.826C92.0768 26.3063 92.7293 26.5874 93.4163 26.6151C94.4131 26.6151 95.4372 26.1438 96.1622 24.5216C96.2438 24.7029 96.3434 24.866 96.4341 25.0291C97.9566 27.4307 100.902 26.9051 102.379 24.866L102.56 24.6123L102.606 25.881L101.246 27.1226C98.9625 29.207 97.2225 30.7929 97.0956 32.6416C96.9325 34.9979 98.8447 35.8679 100.295 35.9857C101.02 36.0218 101.742 35.8636 102.385 35.5274C103.029 35.1913 103.571 34.6893 103.956 34.0735C104.663 33.0313 105.134 30.7838 105.098 28.5635L105.043 25.3373C107.214 22.827 108.882 19.9226 109.955 16.7823C109.955 16.7823 110.798 16.7913 111.695 16.737C111.985 16.7188 112.067 16.7732 112.013 16.9816C111.949 17.2354 110.88 21.3679 111.858 24.1229C112.529 26.0079 114.033 26.6151 114.94 26.6151C115.982 26.6151 116.988 25.8266 117.523 24.6485L117.731 25.0291C119.253 27.4307 122.19 26.9051 123.676 24.866C124.011 24.4129 124.202 24.0141 124.202 24.0141C124.528 26.0079 126.078 26.6241 126.966 26.6241C127.89 26.6241 128.778 26.2435 129.485 24.5579C129.512 25.301 129.558 25.9082 129.63 26.0985C129.675 26.2163 129.938 26.3704 130.138 26.4338C130.98 26.742 131.841 26.597 132.168 26.5335C132.385 26.4882 132.557 26.307 132.584 25.8538C132.648 24.6485 132.612 22.6276 132.974 21.1323C133.581 18.6038 134.152 17.6251 134.424 17.1448C134.578 16.8729 134.75 16.8276 134.759 17.1176C134.768 17.6976 134.796 19.4013 135.031 21.6941C135.213 23.3798 135.448 24.3766 135.62 24.6848C136.137 25.591 136.771 25.6363 137.279 25.6363C137.605 25.6363 138.294 25.5457 138.23 24.9748C138.203 24.6938 138.248 22.9629 138.865 20.4798C139.254 18.8576 139.907 17.3985 140.143 16.8548C140.233 16.6645 140.278 16.8185 140.278 16.8548C140.224 17.9604 140.115 21.6126 140.568 23.6154C141.185 26.316 142.97 26.6241 143.595 26.6241C144.927 26.6241 146.015 25.6091 146.378 22.9538C146.468 22.3195 146.332 21.821 145.943 21.821Z" fill="#262626"/>
<defs>
<radialGradient id="paint0_radial_402_356" cx="0" cy="0" r="1" gradientUnits="userSpaceOnUse" gradientTransform="translate(28.0913 36.5737) rotate(-115.776) scale(39.8877 59.3285)">
<stop offset="0.24392" stop-color="#FF1B90"/>
<stop offset="0.436673" stop-color="#F80261"/>
<stop offset="0.688476" stop-color="#ED00C0"/>
<stop offset="0.776787" stop-color="#C500E9"/>
<stop offset="0.893155" stop-color="#7017FF"/>
</radialGradient>
<radialGradient id="paint1_radial_402_356" cx="0" cy="0" r="1" gradientUnits="userSpaceOnUse" gradientTransform="translate(13.9781 31.6159) rotate(-57.4396) scale(17.283 17.9768)">
<stop stop-color="#FFD600"/>
<stop offset="0.484375" stop-color="#FF6930"/>
<stop offset="0.734375" stop-color="#FE3B36"/>
<stop offset="1" stop-color="#FE3B36" stop-opacity="0"/>
</radialGradient>
</defs>
</svg>
